<?xml version="1.0" encoding="utf-8"?>
<!-- Generator: Adobe Illustrator 25.2.1, SVG Export Plug-In . SVG Version: 6.00 Build 0)  -->
<svg version="1.1" id="Layer_1" xmlns="http://www.w3.org/2000/svg" xmlns:xlink="http://www.w3.org/1999/xlink" x="0px" y="0px"
	 viewBox="0 0 621 950" style="enable-background:new 0 0 621 950;" xml:space="preserve">
<style type="text/css">
	.st0{fill:#B3B3B3;}
	.st1{fill:#808080;}
	.st2{fill:#FA3C00;}
	.st3{fill:#F2F2F2;}
	.st4{opacity:0.15;}
	.st5{opacity:0.3;fill:#FFFFFF;}
	.st6{fill:#CCCCCC;}
	.st7{opacity:0.3;}
	.st8{fill:#FFFFFF;}
</style>
<g>
	<g>
		<path class="st0" d="M335.74,389.98c-1.66-13.62-13.28-24.19-27.36-24.19s-25.7,10.57-27.36,24.19c-0.14,1.11-0.21,2.24-0.21,3.37
			c0,15.23,12.34,27.57,27.57,27.57s27.57-12.34,27.57-27.57C335.95,392.22,335.88,391.09,335.74,389.98z M308.38,408.31
			c-8.25,0-14.95-6.69-14.95-14.95c0-1.46,0.21-2.89,0.61-4.22c1.82-6.19,7.55-10.72,14.34-10.72s12.52,4.52,14.34,10.72
			c0.41,1.34,0.61,2.76,0.61,4.22C323.33,401.62,316.63,408.31,308.38,408.31z"/>
	</g>
	<path class="st1" d="M335.6,330.02c-0.01-0.01-0.01-0.03-0.01-0.04c-0.13-0.82-0.3-1.62-0.5-2.41v-0.01
		c-0.01-0.03-0.02-0.07-0.03-0.1c-3.06-11.87-13.84-20.65-26.68-20.65c-12.48,0-23.01,8.29-26.4,19.66
		c-0.14,0.45-0.26,0.89-0.37,1.35c-0.18,0.71-0.33,1.43-0.45,2.17c0,0.01,0,0.03-0.01,0.04c-0.23,1.42-0.35,2.87-0.35,4.35
		c0,15.23,12.34,27.57,27.57,27.57s27.57-12.34,27.57-27.57C335.95,332.89,335.83,331.43,335.6,330.02z M315.23,347.66
		c-2.05,1.07-4.38,1.66-6.85,1.66c-2.42,0-4.71-0.57-6.73-1.6c-4.88-2.45-8.22-7.51-8.22-13.35c0-1.53,0.23-3.01,0.66-4.39
		c0.03-0.11,0.07-0.21,0.1-0.31c1.97-5.95,7.59-10.24,14.19-10.24c6.72,0,12.42,4.44,14.29,10.55c0.02,0.07,0.05,0.15,0.07,0.22
		c0.39,1.32,0.59,2.72,0.59,4.18C323.33,340.16,320.04,345.18,315.23,347.66z"/>
	<path class="st0" d="M335.12,327.56L335.12,327.56c-2.4,9.84-10.07,17.59-19.86,20.11c4.81-2.48,8.1-7.5,8.1-13.29
		c0-1.53-0.23-3.01-0.66-4.39c-1.87-6.1-7.57-10.55-14.29-10.55c-6.72,0-12.42,4.44-14.29,10.55c-0.44,1.39-0.66,2.86-0.66,4.39
		c0,5.84,3.34,10.89,8.22,13.35c-9.82-2.42-17.54-10.12-20.04-19.91c2.93-12.05,13.8-21.01,26.77-21.01
		C321.29,306.81,332.09,315.63,335.12,327.56z"/>
	<path class="st1" d="M335.95,393.36c0,15.23-12.34,27.57-27.57,27.57s-27.57-12.34-27.57-27.57c0-1.14,0.07-2.27,0.21-3.37
		c4.31-0.38,8.66-0.66,13.02-0.85c-0.41,1.34-0.61,2.76-0.61,4.22c0,8.26,6.7,14.95,14.95,14.95c8.25,0,14.95-6.69,14.95-14.95
		c0-1.46-0.21-2.89-0.61-4.22c4.36,0.2,8.71,0.47,13.02,0.85C335.88,391.09,335.95,392.22,335.95,393.36z"/>
	<path class="st1" d="M314.69,342.51v42.52c0,3.48-2.82,6.3-6.3,6.3c-3.48,0-6.31-2.82-6.31-6.3v-42.52c0-3.48,2.83-6.31,6.31-6.31
		c1.74,0,3.31,0.7,4.46,1.85C313.99,339.19,314.69,340.76,314.69,342.51z"/>
	<path class="st0" d="M314.69,342.51v24.94c0,3.48-2.82,6.3-6.3,6.3c-3.48,0-6.31-2.82-6.31-6.3v-24.94c0-3.48,2.83-6.31,6.31-6.31
		c1.74,0,3.31,0.7,4.46,1.85C313.99,339.19,314.69,340.76,314.69,342.51z"/>
	<path class="st1" d="M334.92,327.46c-4.05,1.23-8.16,2.14-12.32,2.74c-0.02-0.07-0.05-0.15-0.07-0.22
		c-1.87-6.1-7.57-10.55-14.29-10.55c-6.6,0-12.22,4.29-14.19,10.24c-4.13-0.76-8.2-1.83-12.21-3.21
		c3.38-11.37,13.92-19.66,26.4-19.66C321.08,306.81,331.86,315.58,334.92,327.46z"/>
	<path class="st2" d="M507.5,70.58v164.21c0,12.34-7.5,23.44-18.96,28.03l-53.53,21.5l-62.26,25l-30.39,12.2
		c-20.53,8.25-43.45,8.33-64.04,0.23l-34.32-13.51l-62.26-24.5l-53.34-21c-11.55-4.55-19.15-15.7-19.15-28.12V70.58
		c0-13.89,11.27-25.16,25.16-25.16h347.92C496.23,45.42,507.5,56.69,507.5,70.58z"/>
	<g>
		<polygon class="st3" points="244.01,45.42 244.01,308.25 181.75,283.75 181.75,45.42 		"/>
		<polygon class="st3" points="435.01,45.42 435.01,284.33 372.76,309.33 372.76,45.42 		"/>
	</g>
	<path class="st4" d="M507.5,213.41v21.38c0,12.34-7.5,23.44-18.96,28.03l-53.53,21.5l-62.26,25l-30.39,12.2
		c-20.53,8.25-43.45,8.33-64.04,0.23l-34.32-13.51l-62.26-24.5l-53.34-21c-11.55-4.55-19.15-15.7-19.15-28.12v-21.38
		c0,12.42,7.6,23.57,19.15,28.12l53.34,21l62.26,24.5l34.32,13.51c20.59,8.1,43.51,8.02,64.04-0.23l30.39-12.2l62.26-25l53.53-21.5
		C500,236.85,507.5,225.75,507.5,213.41z"/>
	<path class="st5" d="M471.88,91.2H143.72c-7.59,0-13.74-6.15-13.74-13.74l0,0c0-7.59,6.15-13.74,13.74-13.74h328.16
		c7.59,0,13.74,6.15,13.74,13.74l0,0C485.62,85.05,479.47,91.2,471.88,91.2z"/>
	<g>
		<path class="st1" d="M287.21,422.2l-62.34,126.32c-3.24,6.56-9.49,11.1-16.72,12.15l-139.4,20.26
			c-18.22,2.65-25.49,25.03-12.31,37.88l100.87,98.33c5.23,5.1,7.62,12.45,6.39,19.66l-23.81,138.84
			c-3.11,18.14,15.93,31.98,32.23,23.41l124.69-65.55c6.47-3.4,14.2-3.4,20.67,0l124.69,65.55c16.29,8.57,35.34-5.27,32.23-23.41
			L450.56,736.8c-1.24-7.2,1.15-14.56,6.39-19.66l100.87-98.33c13.18-12.85,5.91-35.24-12.31-37.88l-139.4-20.26
			c-7.23-1.05-13.49-5.59-16.72-12.15L327.04,422.2C318.89,405.7,295.35,405.7,287.21,422.2z"/>
		<path class="st6" d="M459.47,704.65c-5.24,5.11-7.64,12.47-6.4,19.66l1.63,9.53l11.61,67.67l10.57,61.65
			c3.12,18.14-15.93,31.97-32.22,23.4l-41.55-21.85l-51.97-27.31l-31.16-16.39c-6.46-3.4-14.2-3.4-20.66,0l-124.69,65.54
			c-2.97,1.57-6.05,2.39-9.05,2.57h-0.02c-13.46,0.79-25.69-11.15-23.15-25.97L166.2,724.3c1.24-7.19-1.15-14.54-6.38-19.66
			l-11.11-10.83l-30.49-29.73l-18.06-17.59l-41.22-40.17c-13.17-12.85-5.9-35.24,12.32-37.88l125.14-18.19l14.26-2.08
			c7.22-1.06,13.49-5.59,16.72-12.15l16.32-33.08l46.02-93.25c8.15-16.51,31.68-16.51,39.82,0l2.44,4.96l11.79,23.86l19.9,40.32
			l28.21,57.18c3.25,6.56,9.5,11.1,16.72,12.15l85.46,12.42l53.95,7.85c18.22,2.64,25.49,25.03,12.3,37.88L459.47,704.65z"/>
		<g class="st7">
			<path class="st8" d="M341.52,448.22L126.89,663.53l-17.18-16.79l91.57-91.86l13.57-1.98c6.87-1.01,12.84-5.34,15.91-11.6
				l15.53-31.57l84.01-84.27L341.52,448.22z"/>
			<polygon class="st8" points="458.11,794.7 397.97,855.04 348.51,828.97 447.07,730.11 			"/>
			<path class="st8" d="M484.53,564.74l-312.6,313.6h-0.02c-12.8,0.76-24.45-10.64-22.03-24.79l22.66-132.55
				c1.18-6.86-1.1-13.88-6.07-18.76l-10.57-10.34l204.55-205.2l26.85,54.59c3.09,6.26,9.04,10.59,15.91,11.6L484.53,564.74z"/>
		</g>
	</g>
</g>
</svg>
