<?xml version="1.0" encoding="UTF-8"?>
<!DOCTYPE svg PUBLIC "-//W3C//DTD SVG 1.1//EN" "http://www.w3.org/Graphics/SVG/1.1/DTD/svg11.dtd">
<!-- Creator: CorelDRAW 2020 (64-Bit) -->
<svg xmlns="http://www.w3.org/2000/svg" xml:space="preserve" width="56.9507mm" height="74.5069mm" version="1.1" style="shape-rendering:geometricPrecision; text-rendering:geometricPrecision; image-rendering:optimizeQuality; fill-rule:evenodd; clip-rule:evenodd"
viewBox="0 0 472.04 617.56"
 xmlns:xlink="http://www.w3.org/1999/xlink"
 xmlns:xodm="http://www.corel.com/coreldraw/odm/2003">
 <defs>
  <style type="text/css">
   <![CDATA[
    .fil0 {fill:#94BC4C}
   ]]>
  </style>
 </defs>
 <g id="Layer_x0020_1">
  <metadata id="CorelCorpID_0Corel-Layer"/>
  <g id="_2207738416752">
   <path class="fil0" d="M467.41 370.05l-9.67 -35.98c-39.72,6.62 -106.51,45.83 -230.07,53.68 -1.59,0.1 -93.05,12.82 -68.58,-11.75 12.31,-7.27 26.29,-0.56 39.78,-6.21l-17.86 -3.53c-7.14,-0.19 -14.97,-0.01 -22.22,-0.08 -11.95,-0.11 -31.81,3.17 -35.97,-7.47 -8.35,-21.37 54.72,-12.58 70.65,-14.18 -19.01,-11.41 -104.97,0.53 -84.91,-28.11 6.72,-4.78 -0.81,-2.31 9.71,-3.36l59.23 5.53c14,1.08 14.8,4.21 17.79,-5.13 -17.11,-7.21 -41.75,-6.62 -58.2,-14.97 -0.69,-26.41 18.14,-14.79 37.35,-10.17 11.34,2.73 39.09,10.93 49.07,6.37 -1.68,-12.06 -5.36,-10.08 -17.36,-16.12 -12.94,-6.52 -14.92,-8.04 -10.34,-22.06 20.47,-5.05 52.96,22.86 103.86,26.2 41.8,2.74 75.43,-18.58 105.15,-30.28 -2.17,-21.22 -35.35,-47.61 -49.6,-60.47 -11.57,-10.44 -43.83,-37.4 -69.46,-32.97l18.56 41.17 -27.09 -4.46 -7.62 21.66c-11.13,-19.62 -21.16,-43.4 -33.98,-59.02l-12.48 64.43 -14.22 -19.01c-13.28,2.84 -9.06,6.01 -22.73,10.02l8.49 -57.26c-91.38,5.29 -195.71,151.49 -194.67,224.98 56.7,32.79 101.28,88.18 190.81,67.74 20.87,-4.76 46.73,-23.21 65.02,-24.52l8.05 10.39c-10.55,18.61 -25.7,9.24 -33.11,25.45 14.27,11.8 57.19,-7.58 83.09,-1.66 9.04,32.41 -36.35,11.28 -57.76,26.69 10.61,8.8 56.16,2.04 84.12,5.05 7.6,6.84 7.13,5.18 3.41,17.14l-86.41 4.54c15.52,8.45 49.53,3.52 67.18,10.75l-0.17 14.8c-23.4,3.49 -36.94,-1.18 -56.04,-1.84l-18.45 2.77c11.65,6.8 28.26,0.91 36.66,7.94 17.7,14.81 -15.11,13.18 -23.7,14.95 -0.74,-0.53 -1.95,-1.99 -2.41,-1.25 -0.46,0.74 -1.82,-0.94 -2.46,-1.16l-24.59 -3.98c-11.76,-1.25 -22.38,-2.42 -33.76,-3.91 -49.6,-6.49 -71.91,-12.28 -119.03,-24.48 -17.51,-4.54 -41.17,-13.61 -59.13,-16.27 11.72,34.26 70.79,81.76 115.57,91.76 23.71,15.22 97.5,16.7 131.54,14.22 40.32,-2.94 86.34,-19.07 115.03,-37.73 58.54,-38.09 103.46,-109.49 83.93,-208.81z"/>
   <path class="fil0" d="M143.18 134.79c128.54,-34.16 134.36,-5.29 185.64,-1.9 11.1,-20.09 29.11,-30.78 44.45,-49.62 15.92,-19.57 17.86,-57.89 -8.11,-64.49 -34.18,-8.69 -51.84,24.28 -74.27,12.47 -16.93,-8.91 -28.3,-34.73 -62.93,-30.86 -30.28,3.39 -41.76,32.42 -59.84,33.33 -19.96,1 -44.41,-26.74 -70.11,-12.7 -23.04,12.58 -17,47.12 -0.35,65.63 14.53,16.15 28.27,29.23 45.52,48.14z"/>
  </g>
 </g>
</svg>
