<?xml version="1.0" encoding="UTF-8"?>
<!DOCTYPE svg PUBLIC "-//W3C//DTD SVG 1.1//EN" "http://www.w3.org/Graphics/SVG/1.1/DTD/svg11.dtd">
<!-- Creator: CorelDRAW 2020 (64-Bit) -->
<svg xmlns="http://www.w3.org/2000/svg" xml:space="preserve" width="56.9507mm" height="74.5069mm" version="1.1" style="shape-rendering:geometricPrecision; text-rendering:geometricPrecision; image-rendering:optimizeQuality; fill-rule:evenodd; clip-rule:evenodd"
viewBox="0 0 367.64 480.97"
 xmlns:xlink="http://www.w3.org/1999/xlink"
 xmlns:xodm="http://www.corel.com/coreldraw/odm/2003">
 <defs>
  <style type="text/css">
   <![CDATA[
    .fil0 {fill:white}
   ]]>
  </style>
 </defs>
 <g id="Layer_x0020_1">
  <metadata id="CorelCorpID_0Corel-Layer"/>
  <g id="_2207738431296">
   <path class="fil0" d="M364.03 288.2l-7.53 -28.02c-30.94,5.16 -82.95,35.69 -179.18,41.81 -1.24,0.08 -72.47,9.98 -53.41,-9.15 9.59,-5.66 20.47,-0.44 30.98,-4.84l-13.91 -2.75c-5.56,-0.15 -11.66,-0.01 -17.31,-0.06 -9.31,-0.08 -24.77,2.47 -28.01,-5.82 -6.5,-16.64 42.61,-9.8 55.03,-11.05 -14.81,-8.89 -81.75,0.41 -66.13,-21.89 5.23,-3.73 -0.63,-1.8 7.56,-2.62l46.13 4.31c10.9,0.84 11.52,3.28 13.86,-4 -13.33,-5.61 -32.52,-5.16 -45.33,-11.66 -0.54,-20.57 14.13,-11.52 29.09,-7.92 8.84,2.12 30.45,8.52 38.21,4.96 -1.31,-9.39 -4.18,-7.85 -13.52,-12.55 -10.08,-5.08 -11.62,-6.26 -8.05,-17.18 15.95,-3.93 41.24,17.8 80.89,20.4 32.56,2.14 58.74,-14.47 81.89,-23.58 -1.69,-16.52 -27.53,-37.08 -38.63,-47.09 -9.01,-8.13 -34.14,-29.13 -54.1,-25.68l14.45 32.07 -21.1 -3.47 -5.93 16.87c-8.67,-15.28 -16.48,-33.8 -26.47,-45.97l-9.72 50.18 -11.07 -14.8c-10.34,2.21 -7.05,4.68 -17.7,7.8l6.61 -44.59c-71.17,4.12 -152.42,117.98 -151.61,175.22 44.16,25.54 78.88,68.68 148.61,52.75 16.25,-3.71 36.4,-18.07 50.64,-19.1l6.27 8.09c-8.21,14.5 -20.02,7.2 -25.79,19.82 11.11,9.19 44.54,-5.9 64.71,-1.29 7.04,25.24 -28.31,8.78 -44.99,20.79 8.26,6.86 43.74,1.59 65.52,3.93 5.92,5.33 5.55,4.04 2.66,13.35l-67.3 3.54c12.09,6.58 38.57,2.74 52.32,8.37l-0.13 11.52c-18.22,2.71 -28.77,-0.92 -43.64,-1.44l-14.37 2.16c9.08,5.29 22.01,0.71 28.55,6.18 13.78,11.54 -11.77,10.26 -18.46,11.64 -0.57,-0.41 -1.52,-1.55 -1.88,-0.97 -0.36,0.57 -1.41,-0.73 -1.92,-0.9l-19.15 -3.1c-9.16,-0.98 -17.43,-1.89 -26.29,-3.05 -38.63,-5.06 -56.01,-9.56 -92.71,-19.07 -13.64,-3.53 -32.06,-10.6 -46.05,-12.67 9.13,26.68 55.13,63.68 90.01,71.46 18.46,11.85 75.93,13.01 102.44,11.07 31.4,-2.29 67.25,-14.85 89.59,-29.38 45.59,-29.67 80.58,-85.27 65.37,-162.63z"/>
   <path class="fil0" d="M111.51 104.98c100.11,-26.61 104.64,-4.12 144.58,-1.48 8.64,-15.64 22.67,-23.97 34.61,-38.65 12.4,-15.24 13.91,-45.08 -6.31,-50.23 -26.62,-6.77 -40.37,18.91 -57.84,9.71 -13.18,-6.94 -22.04,-27.05 -49.01,-24.04 -23.58,2.64 -32.52,25.25 -46.6,25.96 -15.55,0.78 -34.59,-20.82 -54.61,-9.89 -17.94,9.8 -13.24,36.7 -0.27,51.11 11.31,12.58 22.02,22.77 35.45,37.49z"/>
  </g>
 </g>
</svg>
